<svg xmlns="http://www.w3.org/2000/svg" xmlns:xlink="http://www.w3.org/1999/xlink" width="112.37122344970703" height="24.843994140625" viewBox="0 0 112.37122344970703 24.843994140625" fill="none"><path id="文本 1" fill-rule="evenodd" style="fill:#000000" opacity="1" d="M2.01,20.98l-0.91,-0.74c-0.21,-0.18 -0.34,-0.43 -0.36,-0.71l-0.71,-11.33c-0.02,-0.26 0.06,-0.52 0.23,-0.72l0.7,-0.81c0.16,-0.19 0.38,-0.31 0.62,-0.34l5.31,-0.71c0.29,-0.04 0.58,0.05 0.8,0.25l0.9,0.81c0.22,0.2 0.34,0.49 0.33,0.79l-0.5,11.4c-0.01,0.23 -0.1,0.45 -0.25,0.62l-0.69,0.79c-0.16,0.18 -0.38,0.29 -0.61,0.32l-4.08,0.59c-0.28,0.04 -0.56,-0.03 -0.78,-0.21zM21.67,22.6l-10.05,0.01c-0.43,0 -0.81,-0.27 -0.95,-0.67l-0.36,-1.03c-0.12,-0.35 -0.04,-0.74 0.21,-1.01l6.36,-6.97c0.58,-0.64 0.13,-1.67 -0.74,-1.67h-4.97c-0.55,0 -1,-0.45 -1,-1v-0.79c0,-0.55 0.45,-1 1,-1h9.76c0.39,0 0.75,0.23 0.91,0.59l0.5,1.13c0.16,0.36 0.1,0.79 -0.17,1.08l-6.63,7.24c-0.59,0.66 -0.1,1.7 0.78,1.67l5.41,-0.24c0.63,-0.03 1.13,0.53 1.03,1.16l-0.1,0.66c-0.08,0.49 -0.5,0.84 -0.99,0.84zM11.37,7.02l-0.93,-0.29c-0.52,-0.16 -0.82,-0.72 -0.66,-1.24l1.2,-4.04c0.16,-0.52 0.71,-0.82 1.23,-0.67l0.86,0.24c0.46,0.13 0.73,0.62 0.59,1.08v0c-0.13,0.41 0.19,0.83 0.62,0.82l8.47,-0.25c0.56,-0.02 1.02,0.42 1.03,0.98l0.01,0.76c0.02,0.55 -0.42,1.01 -0.97,1.03l-9.5,0.24c-0.44,0.01 -0.82,0.31 -0.94,0.73l-0.02,0.07c-0.12,0.43 -0.57,0.67 -0.99,0.54zM5.73,17.11l0.28,-7.42c0.02,-0.62 -0.52,-1.11 -1.13,-1.03l-1.08,0.15c-0.52,0.07 -0.89,0.53 -0.86,1.05l0.46,7.33c0.03,0.59 0.57,1.02 1.15,0.93l0.34,-0.06c0.47,-0.08 0.82,-0.47 0.84,-0.95zM38.75,12.56l-0.14,-1.52c-0.03,-0.37 0.23,-0.69 0.6,-0.72v0c0.37,-0.03 0.65,-0.35 0.63,-0.72l-0.19,-3.99c-0.01,-0.26 0.08,-0.52 0.26,-0.71l0.76,-0.85c0.18,-0.2 0.44,-0.32 0.71,-0.33l2.61,-0.1c0.55,-0.02 0.98,-0.47 0.97,-1.02l-0.04,-1.1c-0.02,-0.55 0.42,-1.01 0.97,-1.03l0.77,-0.03c0.55,-0.02 1.01,0.42 1.03,0.97l0.03,1.08c0.02,0.56 0.48,0.99 1.04,0.97l3.12,-0.12c0.29,-0.01 0.57,0.1 0.77,0.31l0.79,0.85c0.2,0.21 0.29,0.49 0.27,0.77l-1.05,12.29c-0.02,0.22 -0.11,0.44 -0.27,0.6l-0.69,0.74c-0.16,0.18 -0.38,0.29 -0.61,0.32l-1.94,0.25c-0.51,0.07 -0.88,0.51 -0.87,1.02l0.11,3.26c0.02,0.56 -0.41,1.02 -0.97,1.04l-0.76,0.02c-0.55,0.02 -1.01,-0.42 -1.03,-0.97l-0.08,-2.77c-0.01,-0.6 -0.54,-1.05 -1.13,-0.97l-2.14,0.28c-0.28,0.04 -0.56,-0.05 -0.78,-0.23l-0.89,-0.76c-0.21,-0.18 -0.34,-0.44 -0.35,-0.71l-0.25,-5.04c-0.02,-0.32 -0.29,-0.56 -0.61,-0.54v0c-0.33,0.03 -0.62,-0.21 -0.65,-0.54zM30.28,16.94l-0.61,-0.48c-0.44,-0.34 -0.51,-0.97 -0.17,-1.41l4.54,-5.77c0.48,-0.62 0.09,-1.53 -0.69,-1.61l-2.49,-0.25c-0.55,-0.06 -0.94,-0.54 -0.89,-1.09l0.07,-0.78c0.05,-0.55 0.54,-0.95 1.09,-0.9l6.2,0.59c0.37,0.03 0.69,0.27 0.83,0.61l0.48,1.17c0.14,0.33 0.09,0.71 -0.13,1l-2.2,2.81c-0.33,0.43 -0.26,1.04 0.15,1.38l2.11,1.78c0.43,0.36 0.48,1 0.11,1.42l-0.49,0.57c-0.36,0.42 -0.98,0.47 -1.4,0.12l-0.14,-0.12c-0.34,-0.29 -0.86,-0.03 -0.84,0.42l0.33,6.85c0.03,0.55 -0.4,1.02 -0.95,1.05l-0.8,0.03c-0.55,0.02 -1.01,-0.4 -1.04,-0.95l-0.32,-6.73c-0.03,-0.52 -0.69,-0.73 -1.01,-0.32l-0.33,0.43c-0.34,0.44 -0.97,0.52 -1.41,0.18zM48.7,9.45v0c0.42,-0.04 0.79,0.26 0.82,0.68l0.1,1.19c0.04,0.46 -0.3,0.86 -0.76,0.9v0c-0.46,0.04 -0.81,0.44 -0.8,0.9l0.08,2.78c0.01,0.49 0.45,0.86 0.93,0.79l0.13,-0.02c0.46,-0.07 0.81,-0.45 0.85,-0.91l0.72,-8.49c0.05,-0.6 -0.44,-1.11 -1.04,-1.08l-0.9,0.03c-0.55,0.02 -0.98,0.49 -0.96,1.04l0.06,1.51c0.01,0.41 0.37,0.72 0.77,0.68zM35.25,4.28l-2.13,-1.4c-0.46,-0.31 -0.59,-0.93 -0.28,-1.39l0.45,-0.67c0.31,-0.45 0.92,-0.57 1.38,-0.27l2.12,1.39c0.47,0.31 0.59,0.94 0.28,1.4l-0.44,0.66c-0.31,0.46 -0.92,0.58 -1.38,0.28zM45.4,16.27l-0.09,-2.65c-0.01,-0.58 -0.51,-1.02 -1.09,-0.97l-0.49,0.05c-0.53,0.05 -0.93,0.51 -0.91,1.04l0.12,2.66c0.02,0.59 0.55,1.03 1.13,0.95l0.46,-0.06c0.51,-0.07 0.88,-0.51 0.87,-1.02zM45.16,8.85l-0.05,-1.5c-0.02,-0.56 -0.48,-0.99 -1.04,-0.97l-0.58,0.02c-0.55,0.02 -0.98,0.49 -0.96,1.04l0.06,1.53c0.02,0.57 0.52,1.01 1.09,0.96l0.57,-0.05c0.53,-0.05 0.93,-0.5 0.91,-1.03zM74.42,19.24l-10.32,1.99c-0.5,0.1 -1,-0.2 -1.15,-0.69l-0.14,-0.46c-0.16,-0.56 0.18,-1.14 0.75,-1.26l10.31,-2.26c0.54,-0.12 1.08,0.23 1.19,0.78l0.15,0.72c0.11,0.54 -0.24,1.07 -0.79,1.18zM79.64,24.11l-5.3,0.47c-0.55,0.05 -1.03,-0.35 -1.08,-0.9l-0.07,-0.75c-0.05,-0.55 0.35,-1.04 0.9,-1.09l3.74,-0.36c0.47,-0.04 0.85,-0.42 0.9,-0.89l0.59,-5.68c0.06,-0.62 -0.45,-1.15 -1.07,-1.1l-13.8,0.97c-0.32,0.02 -0.62,-0.11 -0.83,-0.35l-0.78,-0.93c-0.21,-0.24 -0.28,-0.57 -0.21,-0.88l1.43,-5.74c0.14,-0.53 0.68,-0.85 1.21,-0.72l0.74,0.18c0.54,0.14 0.86,0.68 0.72,1.22l-0.77,3.04c-0.16,0.66 0.36,1.29 1.04,1.24l13.44,-0.96c0.3,-0.02 0.59,0.09 0.8,0.31l0.82,0.88c0.2,0.21 0.3,0.51 0.27,0.8l-1.06,9.63c-0.02,0.22 -0.12,0.43 -0.28,0.59l-0.73,0.73c-0.17,0.17 -0.39,0.27 -0.62,0.29zM78.83,2.21l-0.8,7.17c-0.06,0.55 -0.56,0.94 -1.11,0.88l-0.78,-0.09c-0.55,-0.06 -0.94,-0.56 -0.88,-1.11l0.54,-4.67c0.07,-0.64 -0.46,-1.18 -1.1,-1.11l-12.26,1.29c-0.55,0.06 -1.04,-0.34 -1.1,-0.89l-0.08,-0.74c-0.06,-0.55 0.34,-1.05 0.89,-1.11l14.75,-1.57c0.3,-0.03 0.61,0.07 0.82,0.29l0.83,0.85c0.21,0.21 0.31,0.51 0.28,0.81zM94.49,22.32l-3.81,0.34c-0.27,0.03 -0.53,-0.06 -0.74,-0.23l-0.88,-0.75c-0.21,-0.18 -0.33,-0.43 -0.35,-0.7l-0.86,-14.44c-0.02,-0.27 0.08,-0.54 0.26,-0.74l0.75,-0.82c0.18,-0.2 0.43,-0.31 0.7,-0.32l5.72,-0.26c0.28,-0.01 0.56,0.1 0.76,0.3l0.82,0.83c0.2,0.2 0.3,0.49 0.28,0.77l-0.97,14.32c-0.02,0.24 -0.12,0.47 -0.29,0.64l-0.78,0.77c-0.16,0.16 -0.38,0.27 -0.61,0.29zM100.88,10.11l-1.05,13.71c-0.04,0.55 -0.52,0.96 -1.07,0.92l-0.74,-0.06c-0.55,-0.04 -0.96,-0.52 -0.92,-1.07l1.57,-21.29c0.02,-0.24 0.13,-0.47 0.3,-0.64l1.05,-1.03l10.88,-0.56l1.15,1.24c0.2,0.22 0.29,0.52 0.25,0.82l-0.82,5.79c-0.03,0.25 -0.16,0.47 -0.35,0.63l-0.83,0.69c-0.18,0.15 -0.41,0.24 -0.64,0.24h-0.64c-0.97,0 -2.37,-0.02 -2.37,-0.02c-1.39,-0.01 -2.97,-0.03 -2.97,-0.03c-1.57,-0.01 -2.75,-0.01 -2.07,-0.01c-0.38,0 -0.7,0.29 -0.73,0.67zM110.6,14.17l-5.12,5.05c-0.22,0.21 -0.33,0.51 -0.3,0.81l0.05,0.45c0.05,0.51 0.49,0.9 1.01,0.88l4.77,-0.21c0.56,-0.02 1.02,0.41 1.04,0.97l0.03,0.77c0.02,0.55 -0.41,1.01 -0.96,1.03l-6.59,0.29c-0.25,0.01 -0.5,-0.08 -0.69,-0.24l-0.84,-0.72c-0.19,-0.17 -0.32,-0.4 -0.34,-0.66l-0.95,-9.66c-0.06,-0.55 0.34,-1.04 0.89,-1.1l0.79,-0.08c0.56,-0.06 1.05,0.35 1.1,0.91l0.11,1.21c0.08,0.84 1.09,1.21 1.69,0.63l2.37,-2.31c0.39,-0.38 1.02,-0.38 1.41,0.01l0.54,0.55c0.39,0.39 0.39,1.03 -0.01,1.42zM92.44,19.73l0.12,-0.01c0.49,-0.04 0.88,-0.44 0.91,-0.93l0.74,-10.47c0.04,-0.6 -0.44,-1.1 -1.04,-1.07l-1.45,0.06c-0.56,0.03 -0.98,0.5 -0.95,1.06l0.64,10.47c0.03,0.53 0.5,0.94 1.03,0.89zM103.03,6.69c1.05,0.01 2.11,0.01 2.11,0.01c1.02,0 1.96,0.02 2.02,0.02c0.01,0 0.01,0 0.01,0c0.48,0.01 0.9,0.01 1.2,0.01c0.29,-0.02 0.53,-0.25 0.55,-0.54l0.3,-2.02c0.09,-0.62 -0.41,-1.16 -1.03,-1.14l-5.93,0.28c-0.51,0.02 -0.92,0.42 -0.95,0.93l-0.1,1.5c-0.03,0.51 0.36,0.94 0.87,0.94c0.44,0 0.9,0.01 0.94,0.01c0,0 0,0 0.01,0z"></path></svg>